# xmcd
#
# Track frame offsets:
#	150
#	8030
#	8605
#	27350
#	38267
#	51848
#	61116
#	72961
#	106557
#	123646
#	142844
#	166471
#	183240
#	208680
#	212219
#	236952
#	252258
#	267118
#	278270
#	290931
#	305480
#	323521
#
# Disc length: 4364 seconds
#
# Revision: 1
# Processed by: cddbd v1.5.1PL2 Copyright (c) Steve Scherf et al.
# Submitted via: audiograbber 1.83.01
#
DISCID=2d110a16
DTITLE=TARANTINO MOVES - Soudtracks
DYEAR=1900
DGENRE=
TTITLE0=DIck Dales - Noght rider
TTITLE1=Chet`s speech
TTITLE2=Tito and Tarantula - After dack
TTITLE3=Dick Dales and His del tones - Miselrow
TTITLE4=Urge Overkilll - Girl, you`ll be a woman soon
TTITLE5=Los Lobos feat. Antonio Banderas - concion del mariachi
TTITLE6=Chuck Berry - You never can tell
TTITLE7=Leonard Cohen - Waiting for a miracle
TTITLE8=The Blasters - Dark night
TTITLE9=Cafe`Tacuba - El punal el corazone
TTITLE10=Tito and Tarantula - Angry Cockroaches
TTITLE11=Leonard Cohen - The future
TTITLE12=Tito and Tarantula - Strange face of love
TTITLE13=Joseph Julian Gonzales - Cumbia de surf
TTITLE14=Slash - Obsession confession
TTITLE15=Stealer Wheel - Stuck in the middle with you
TTITLE16=Lively once - Surf rider
TTITLE17=Rem Jet - Black Betty
TTITLE18=Blue Swede - Hooked on a feeling
TTITLE19=George Baker selection - Little green bag
TTITLE20=Dire Straits - Six blade knife
TTITLE21=Ezeliel speech
EXTD=
EXTT0=
EXTT1=
EXTT2=
EXTT3=
EXTT4=
EXTT5=
EXTT6=
EXTT7=
EXTT8=
EXTT9=
EXTT10=
EXTT11=
EXTT12=
EXTT13=
EXTT14=
EXTT15=
EXTT16=
EXTT17=
EXTT18=
EXTT19=
EXTT20=
EXTT21=
PLAYORDER=
